<?xml version="1.0" encoding="UTF-8" standalone="no"?><!DOCTYPE svg PUBLIC "-//W3C//DTD SVG 1.1//EN" "http://www.w3.org/Graphics/SVG/1.1/DTD/svg11.dtd"><svg width="100%" height="100%" viewBox="0 0 5056 2313" version="1.1" xmlns="http://www.w3.org/2000/svg" xmlns:xlink="http://www.w3.org/1999/xlink" xml:space="preserve" xmlns:serif="http://www.serif.com/" style="fill-rule:evenodd;clip-rule:evenodd;stroke-linejoin:round;stroke-miterlimit:2;"><g id="Wordmark"><path d="M18.364,720.068l0,-720.068l195.24,0l0,273.529l259.031,0l0,-273.529l195.24,0l0,720.068l-195.24,0l0,-288.994l-259.031,0l0,288.994l-195.24,0Z" style="fill-rule:nonzero;"/><path d="M687.013,720.068l233.418,-720.068l266.764,0l242.117,720.068l-221.336,0l-83.605,-279.328c-18.042,-60.569 -34.956,-123.475 -50.743,-188.716c-15.787,-65.241 -30.768,-130.079 -44.944,-194.515l44.461,0c-13.531,64.436 -27.224,129.274 -41.078,194.515c-13.854,65.241 -29.479,128.146 -46.877,188.716l-79.739,279.328l-218.437,0Zm173.01,-138.214l0,-145.947l396.279,0l0,145.947l-396.279,0Z" style="fill-rule:nonzero;"/><path d="M1448.449,720.068l0,-720.068l310.258,0c53.482,0 100.278,10.551 140.389,31.654c40.111,21.103 71.362,50.824 93.754,89.163c22.391,38.339 33.587,83.122 33.587,134.348c0,51.549 -11.437,96.09 -34.312,133.623c-22.875,37.534 -54.931,66.53 -96.17,86.988c-41.239,20.458 -89.243,30.687 -144.014,30.687l-185.575,0l0,-151.746l145.947,0c23.197,0 43.011,-4.108 59.442,-12.323c16.431,-8.216 28.996,-19.733 37.695,-34.554c8.699,-14.82 13.048,-32.379 13.048,-52.676c0,-20.942 -4.349,-38.742 -13.048,-53.401c-8.699,-14.659 -21.264,-25.855 -37.695,-33.587c-16.431,-7.732 -36.245,-11.598 -59.442,-11.598l-68.624,0l0,563.49l-195.24,0Z" style="fill-rule:nonzero;"/><path d="M2048.473,720.068l0,-720.068l310.258,0c53.482,0 100.278,10.551 140.389,31.654c40.111,21.103 71.362,50.824 93.754,89.163c22.391,38.339 33.587,83.122 33.587,134.348c0,51.549 -11.437,96.09 -34.312,133.623c-22.875,37.534 -54.931,66.53 -96.17,86.988c-41.239,20.458 -89.243,30.687 -144.014,30.687l-185.575,0l0,-151.746l145.947,0c23.197,0 43.011,-4.108 59.442,-12.323c16.431,-8.216 28.996,-19.733 37.695,-34.554c8.699,-14.82 13.048,-32.379 13.048,-52.676c0,-20.942 -4.349,-38.742 -13.048,-53.401c-8.699,-14.659 -21.264,-25.855 -37.695,-33.587c-16.431,-7.732 -36.245,-11.598 -59.442,-11.598l-68.624,0l0,563.49l-195.24,0Z" style="fill-rule:nonzero;"/><path d="M2892.548,720.068l0,-250.332l-268.213,-469.736l229.552,0l103.902,217.47c9.343,19.653 17.72,39.87 25.13,60.65c7.41,20.78 14.981,44.38 22.714,70.799l-28.513,0c7.088,-26.419 14.015,-50.018 20.78,-70.799c6.766,-20.78 14.659,-40.997 23.68,-60.65l97.137,-217.47l228.585,0l-260.481,469.736l0,250.332l-194.273,0Z" style="fill-rule:nonzero;"/><path d="M18.364,1511.735l0,-720.068l308.325,0l64.758,225.203c5.477,19.331 11.76,44.944 18.847,76.839c7.088,31.896 14.095,66.127 21.022,102.694c6.927,36.567 13.29,71.685 19.089,105.352c5.799,33.668 10.31,62.1 13.531,85.297l-36.245,0c3.222,-23.197 7.652,-51.629 13.29,-85.297c5.638,-33.668 11.921,-68.785 18.847,-105.352c6.927,-36.567 13.854,-70.799 20.78,-102.694c6.927,-31.896 13.129,-57.509 18.606,-76.839l63.791,-225.203l308.808,0l0,720.068l-197.173,0l0,-278.362c0,-16.431 0.403,-38.259 1.208,-65.483c0.805,-27.224 1.691,-57.106 2.658,-89.646c0.967,-32.54 1.853,-65.241 2.658,-98.103c0.805,-32.862 1.208,-63.147 1.208,-90.854l11.115,0c-5.799,30.607 -12.404,62.422 -19.814,95.445c-7.41,33.023 -14.981,65.241 -22.714,96.653c-7.732,31.412 -15.142,60.247 -22.23,86.505c-7.088,26.258 -13.209,48.085 -18.364,65.483l-83.605,278.362l-162.378,0l-85.055,-278.362c-5.155,-17.398 -11.357,-39.225 -18.606,-65.483c-7.249,-26.258 -14.901,-55.092 -22.955,-86.505c-8.054,-31.412 -15.867,-63.63 -23.438,-96.653c-7.571,-33.023 -14.417,-64.838 -20.539,-95.445l14.015,0c0,27.707 0.403,57.992 1.208,90.854c0.805,32.862 1.691,65.563 2.658,98.103c0.967,32.54 1.853,62.422 2.658,89.646c0.805,27.224 1.208,49.052 1.208,65.483l0,278.362l-197.173,0Z" style="fill-rule:nonzero;"/><path d="M915.115,1511.735l0,-720.068l519.029,0l0,157.545l-323.789,0l0,121.783l296.726,0l0,153.679l-296.726,0l0,129.516l321.856,0l0,157.545l-517.096,0Z" style="fill-rule:nonzero;"/><path d="M1749.524,1511.735l-197.173,0l0,-166.244l189.441,0c35.762,0 66.288,-5.638 91.579,-16.914c25.291,-11.276 44.541,-31.01 57.75,-59.2c13.209,-28.191 19.814,-67.255 19.814,-117.192c0,-50.26 -6.766,-89.485 -20.297,-117.676c-13.531,-28.191 -33.265,-48.005 -59.2,-59.442c-25.935,-11.437 -57.75,-17.156 -95.445,-17.156l-186.541,0l0,-166.244l197.173,0c74.101,0 138.053,14.417 191.857,43.252c53.804,28.835 95.365,70.154 124.683,123.958c29.318,53.804 43.977,118.239 43.977,193.307c0,74.745 -14.579,139.02 -43.736,192.824c-29.157,53.804 -70.476,95.043 -123.958,123.716c-53.482,28.674 -116.79,43.011 -189.924,43.011Zm-82.155,-720.068l0,720.068l-195.24,0l0,-720.068l195.24,0Z" style="fill-rule:nonzero;"/><rect x="2137.878" y="791.667" width="195.24" height="720.068" style="fill-rule:nonzero;"/><path d="M2352.255,1511.735l233.418,-720.068l266.764,0l242.117,720.068l-221.336,0l-83.605,-279.328c-18.042,-60.569 -34.956,-123.475 -50.743,-188.716c-15.787,-65.241 -30.768,-130.079 -44.944,-194.515l44.461,0c-13.531,64.436 -27.224,129.274 -41.078,194.515c-13.854,65.241 -29.479,128.146 -46.877,188.716l-79.739,279.328l-218.437,0Zm173.01,-138.214l0,-145.947l396.279,0l0,145.947l-396.279,0Z" style="fill-rule:nonzero;"/><path d="M311.224,2312.013c-62.503,0 -117.031,-9.17 -163.586,-27.51c-46.555,-18.34 -82.719,-46.647 -108.494,-84.922c-25.774,-38.275 -38.822,-87.235 -39.145,-146.879l185.575,0c1.289,21.689 6.846,40.029 16.673,55.02c9.826,14.991 23.68,26.314 41.561,33.969c17.881,7.655 39.386,11.482 64.516,11.482c20.942,0 38.5,-2.552 52.676,-7.655c14.176,-5.103 24.888,-12.2 32.137,-21.29c7.249,-9.09 10.874,-19.536 10.874,-31.337c0,-10.845 -3.463,-20.333 -10.39,-28.467c-6.927,-8.133 -18.284,-15.549 -34.07,-22.247c-15.787,-6.698 -37.05,-12.758 -63.791,-18.181l-72.49,-15.31c-63.469,-13.396 -113.487,-36.281 -150.054,-68.655c-36.567,-32.374 -54.851,-76.47 -54.851,-132.287c0,-45.292 12.404,-84.922 37.212,-118.891c24.808,-33.969 59.039,-60.442 102.694,-79.42c43.655,-18.978 93.995,-28.467 151.021,-28.467c58.314,0 108.655,9.648 151.021,28.945c42.366,19.297 75.068,46.408 98.103,81.334c23.036,34.926 34.715,75.672 35.037,122.24l-187.508,0c-1.611,-23.284 -10.229,-41.385 -25.855,-54.302c-15.626,-12.918 -39.225,-19.377 -70.799,-19.377c-19.975,0 -36.406,2.312 -49.293,6.937c-12.887,4.625 -22.391,11.084 -28.513,19.377c-6.121,8.293 -9.182,17.702 -9.182,28.228c0,11.163 3.302,20.971 9.907,29.424c6.605,8.452 17.075,15.788 31.412,22.008c14.337,6.22 32.782,11.722 55.334,16.506l58.959,12.439c39.628,8.293 73.698,19.297 102.211,33.012c28.513,13.715 51.871,29.743 70.074,48.083c18.203,18.34 31.573,38.992 40.111,61.957c8.538,22.965 12.807,48.003 12.807,75.114c0,46.887 -11.679,86.676 -35.037,119.369c-23.358,32.693 -56.784,57.492 -100.278,74.397c-43.494,16.905 -95.687,25.357 -156.579,25.357Z" style="fill-rule:nonzero;"/><path d="M599.058,1746.504l0,-155.97l625.348,0l0,155.97l-215.054,0l0,556.898l-195.24,0l0,-556.898l-215.054,0Z" style="fill-rule:nonzero;"/><path d="M1248.376,2303.402l0,-712.868l310.258,0c53.482,0 100.278,9.648 140.389,28.945c40.111,19.297 71.362,47.046 93.754,83.248c22.391,36.202 33.587,79.5 33.587,129.895c0,51.033 -11.437,94.092 -34.312,129.177c-22.875,35.085 -54.931,61.559 -96.17,79.42c-41.239,17.862 -89.243,26.792 -144.014,26.792l-185.575,0l0,-150.228l145.947,0c23.197,0 43.011,-2.871 59.442,-8.612c16.431,-5.741 28.996,-14.831 37.695,-27.271c8.699,-12.439 13.048,-28.866 13.048,-49.279c0,-20.413 -4.349,-36.999 -13.048,-49.757c-8.699,-12.758 -21.264,-22.167 -37.695,-28.228c-16.431,-6.06 -36.245,-9.09 -59.442,-9.09l-68.624,0l0,557.855l-195.24,0Zm389.513,0l-175.909,-327.249l207.805,0l180.742,327.249l-212.638,0Z" style="fill-rule:nonzero;"/><path d="M1835.836,2303.402l233.418,-712.868l266.764,0l242.117,712.868l-221.336,0l-83.605,-276.535c-18.042,-59.964 -34.956,-122.24 -50.743,-186.829c-15.787,-64.589 -30.768,-128.779 -44.944,-192.57l44.461,0c-13.531,63.791 -27.224,127.981 -41.078,192.57c-13.854,64.589 -29.479,126.865 -46.877,186.829l-79.739,276.535l-218.437,0Zm173.01,-136.832l0,-144.487l396.279,0l0,144.487l-396.279,0Z" style="fill-rule:nonzero;"/><path d="M2486.603,1746.504l0,-155.97l625.348,0l0,155.97l-215.054,0l0,556.898l-195.24,0l0,-556.898l-215.054,0Z" style="fill-rule:nonzero;"/><path d="M3135.921,2303.402l0,-712.868l519.029,0l0,155.97l-323.789,0l0,120.566l296.726,0l0,152.142l-296.726,0l0,128.22l321.856,0l0,155.97l-517.096,0Z" style="fill-rule:nonzero;"/><path d="M4033.155,2312.97c-69.913,0 -131.368,-14.752 -184.366,-44.255c-52.998,-29.503 -94.318,-71.526 -123.958,-126.068c-29.64,-54.542 -44.461,-119.29 -44.461,-194.244c0,-78.463 15.867,-145.045 47.602,-199.746c31.735,-54.701 74.182,-96.325 127.341,-124.871c53.159,-28.547 112.118,-42.82 176.876,-42.82c42.528,0 82.075,5.98 118.642,17.941c36.567,11.961 69.027,28.945 97.378,50.953c28.352,22.008 51.146,47.923 68.382,77.746c17.237,29.822 27.788,62.595 31.654,98.318l-197.173,0c-2.9,-12.12 -7.652,-22.965 -14.256,-32.534c-6.605,-9.569 -14.82,-17.622 -24.647,-24.161c-9.826,-6.539 -21.103,-11.482 -33.829,-14.831c-12.726,-3.349 -26.821,-5.024 -42.286,-5.024c-32.54,0 -60.408,7.735 -83.605,23.204c-23.197,15.469 -40.836,37.876 -52.918,67.22c-12.082,29.344 -18.123,64.589 -18.123,105.734c0,41.783 5.799,77.506 17.398,107.169c11.598,29.663 28.754,52.389 51.468,68.177c22.714,15.788 50.985,23.683 84.813,23.683c29.64,0 54.368,-4.306 74.182,-12.918c19.814,-8.612 34.634,-20.812 44.461,-36.6c9.826,-15.788 14.74,-34.368 14.74,-55.738l33.829,3.827l-164.311,0l0,-137.789l318.956,0l0,98.558c0,65.067 -13.854,120.645 -41.561,166.734c-27.707,46.089 -65.966,81.334 -114.776,105.734c-48.81,24.4 -104.627,36.6 -167.452,36.6Z" style="fill-rule:nonzero;"/><path d="M4600.801,2303.402l0,-247.829l-268.213,-465.038l229.552,0l103.902,215.296c9.343,19.456 17.72,39.471 25.13,60.044c7.41,20.573 14.981,43.936 22.714,70.091l-28.513,0c7.088,-26.154 14.015,-49.518 20.78,-70.091c6.766,-20.573 14.659,-40.587 23.68,-60.044l97.137,-215.296l228.585,0l-260.481,465.038l0,247.829l-194.273,0Z" style="fill-rule:nonzero;"/></g></svg>